REM DIRINDEX 1\2\4,1\2\5,1\3\6,1\3\7,1\3\8
REM DIRNAME cjc092,folder01,folder02,folder03,folder04,folder05,folder06,folder07
TITLE ""
FILE "LEVEL4-003-midashigo.mp3" MP3
  TRACK 01 AUDIO
    TITLE "0:"
    INDEX 01 00:00:00
  TRACK 02 AUDIO
    TITLE "6:cjc092_2658"
    INDEX 01 00:00:03
  TRACK 03 AUDIO
    TITLE "0:"
    INDEX 01 00:03:00
  TRACK 04 AUDIO
    TITLE "7:cjc092_2659"
    INDEX 01 00:03:49
  TRACK 05 AUDIO
    TITLE "8:cjc092_2660"
    INDEX 01 00:04:74
  TRACK 06 AUDIO
    TITLE "0:"
    INDEX 01 00:08:30
  TRACK 07 AUDIO
    TITLE "7:cjc092_2661"
    INDEX 01 00:08:66
  TRACK 08 AUDIO
    TITLE "8:cjc092_2662"
    INDEX 01 00:10:31
  TRACK 09 AUDIO
    TITLE "0:"
    INDEX 01 00:11:39
  TRACK 10 AUDIO
    TITLE "7:cjc092_2663"
    INDEX 01 00:11:68
  TRACK 11 AUDIO
    TITLE "8:cjc092_2664"
    INDEX 01 00:13:35
  TRACK 12 AUDIO
    TITLE "0:"
    INDEX 01 00:19:63
  TRACK 13 AUDIO
    TITLE "7:cjc092_2665"
    INDEX 01 00:20:22
  TRACK 14 AUDIO
    TITLE "8:cjc092_2666"
    INDEX 01 00:21:49
  TRACK 15 AUDIO
    TITLE "0:"
    INDEX 01 00:24:18
  TRACK 16 AUDIO
    TITLE "7:cjc092_2667"
    INDEX 01 00:24:53
  TRACK 17 AUDIO
    TITLE "8:cjc092_2668"
    INDEX 01 00:26:13
  TRACK 18 AUDIO
    TITLE "0:"
    INDEX 01 00:29:03
  TRACK 19 AUDIO
    TITLE "7:cjc092_2669"
    INDEX 01 00:29:33
  TRACK 20 AUDIO
    TITLE "8:cjc092_2670"
    INDEX 01 00:30:59
  TRACK 21 AUDIO
    TITLE "0:"
    INDEX 01 00:33:48
  TRACK 22 AUDIO
    TITLE "7:cjc092_2671"
    INDEX 01 00:34:08
  TRACK 23 AUDIO
    TITLE "8:cjc092_2672"
    INDEX 01 00:35:27
  TRACK 24 AUDIO
    TITLE "0:"
    INDEX 01 00:38:10
  TRACK 25 AUDIO
    TITLE "7:cjc092_2673"
    INDEX 01 00:38:41
  TRACK 26 AUDIO
    TITLE "8:cjc092_2674"
    INDEX 01 00:39:62
  TRACK 27 AUDIO
    TITLE "0:"
    INDEX 01 00:43:66
  TRACK 28 AUDIO
    TITLE "7:cjc092_2675"
    INDEX 01 00:44:24
  TRACK 29 AUDIO
    TITLE "8:cjc092_2676"
    INDEX 01 00:45:59
  TRACK 30 AUDIO
    TITLE "0:"
    INDEX 01 00:46:51
  TRACK 31 AUDIO
    TITLE "7:cjc092_2677"
    INDEX 01 00:47:07
  TRACK 32 AUDIO
    TITLE "8:cjc092_2678"
    INDEX 01 00:48:26
  TRACK 33 AUDIO
    TITLE "0:"
    INDEX 01 00:51:42
  TRACK 34 AUDIO
    TITLE "7:cjc092_2679"
    INDEX 01 00:52:02
  TRACK 35 AUDIO
    TITLE "8:cjc092_2680"
    INDEX 01 00:53:39
  TRACK 36 AUDIO
    TITLE "0:"
    INDEX 01 00:55:55
  TRACK 37 AUDIO
    TITLE "7:cjc092_2681"
    INDEX 01 00:56:14
  TRACK 38 AUDIO
    TITLE "8:cjc092_2682"
    INDEX 01 00:57:46
  TRACK 39 AUDIO
    TITLE "0:"
    INDEX 01 01:00:00
  TRACK 40 AUDIO
    TITLE "7:cjc092_2683"
    INDEX 01 01:00:35
  TRACK 41 AUDIO
    TITLE "8:cjc092_2684"
    INDEX 01 01:01:54
  TRACK 42 AUDIO
    TITLE "0:"
    INDEX 01 01:03:69
  TRACK 43 AUDIO
    TITLE "7:cjc092_2685"
    INDEX 01 01:04:27
  TRACK 44 AUDIO
    TITLE "8:cjc092_2686"
    INDEX 01 01:05:60
  TRACK 45 AUDIO
    TITLE "0:"
    INDEX 01 01:08:70
  TRACK 46 AUDIO
    TITLE "7:cjc092_2687"
    INDEX 01 01:09:28
  TRACK 47 AUDIO
    TITLE "8:cjc092_2688"
    INDEX 01 01:10:51
  TRACK 48 AUDIO
    TITLE "0:"
    INDEX 01 01:13:67
  TRACK 49 AUDIO
    TITLE "7:cjc092_2689"
    INDEX 01 01:14:23
  TRACK 50 AUDIO
    TITLE "8:cjc092_2690"
    INDEX 01 01:15:50
  TRACK 51 AUDIO
    TITLE "0:"
    INDEX 01 01:19:54
  TRACK 52 AUDIO
    TITLE "7:cjc092_2691"
    INDEX 01 01:20:14
  TRACK 53 AUDIO
    TITLE "8:cjc092_2692"
    INDEX 01 01:21:53
  TRACK 54 AUDIO
    TITLE "0:"
    INDEX 01 01:24:51
  TRACK 55 AUDIO
    TITLE "7:cjc092_2693"
    INDEX 01 01:25:11
  TRACK 56 AUDIO
    TITLE "8:cjc092_2694"
    INDEX 01 01:26:52
  TRACK 57 AUDIO
    TITLE "0:"
    INDEX 01 01:28:63
  TRACK 58 AUDIO
    TITLE "7:cjc092_2695"
    INDEX 01 01:29:15
  TRACK 59 AUDIO
    TITLE "8:cjc092_2696"
    INDEX 01 01:30:56
  TRACK 60 AUDIO
    TITLE "0:"
    INDEX 01 01:33:25
